<svg xmlns="http://www.w3.org/2000/svg" style="width:100%;height:100%;transform:rotateY(180deg);content-visibility:visible" width="332" height="400">
  <g fill="none" fill-rule="evenodd">
    <g fill-rule="nonzero">
      <path d="m199.651 92.622-27.812 5.37 1.851 13.9 2.84 16.87 14.059-9.79 9.062-26.35z" fill="#8F8F8F"></path>
      <path d="m168.54 79.792 7.7 20.91 23.41-8.08-31.11-12.83z" fill="#DDDDDC"></path>
      <path d="m179.51 146.422 5.4 4.4 11.42 2.33 9.98-21.26-15.9 5.31-10.9 9.22z" fill="#8F8F8F"></path>
      <path d="M190.59 118.972h-18.75l7.67 27.45 26.8-14.53-15.72-12.92zM75.12 137.202l-22.96 6.29-6.7 17.53 13.82 2.54 17.64-14.96-1.8-11.4z" fill="#C4C4C4"></path>
      <path d="m72.14 121.182-31.91 8.38 11.93 13.93 21.71 4.1 6.32-10.39-8.05-16.02z" fill="#8F8F8F"></path>
      <path d="m72.23 98.212-6.31 1.36-4.81-6.15-20.88 36.14 32.63-4.51-.63-26.84z" fill="#DDDDDC"></path>
      <path d="m90.28 152.342-44.82 8.68 9.63 7.13 38.47-6.29-3.28-9.52z" fill="#8F8F8F"></path>
    </g>
    <g fill-rule="nonzero">
      <path d="m245.419 154.111 8.53-7.53 7.37-12.54-.54-28.65-17.14 17.42-5.05 20.03 6.83 11.27z" fill="#8A6651"></path>
      <path d="m290.519 52.941-2.64 1.95-11.78 20.85-4.89 6.92 1.241 14.04-11.13 7.52 1.67 5.51-6.891 16.02-6.409 4.18-7.521 16.49 11.781.16 12.929-36.67 11.911-10.01-.46-17.55 12.189-29.41z" fill="#35785D"></path>
      <path d="m257.55 129.111 5.439-19.38-1.668-5.51-11.63 25.71 7.859-.82zM287.879 54.891l2.64-1.95-4.43.34-14.88 29.38 6.13-3.59 10.54-24.18z" fill="#53AF8A"></path>
      <path d="m235.19 129.931 4.479-15.39 18.901-12.27 2.75 1.95-3.771 8.16-7.819 6.85-.04 10.7-3.32 7.27-7.781 5.64-3.399-12.91z" fill="#DFBCA4"></path>
      <path d="m272.63 105.081-1.42 32.17-17.26 9.33 7.37-42.36 11.31.86z" fill="#C3977A"></path>
    </g>
    <g fill-rule="nonzero">
      <path d="m249.05 174.111-18.859-38.16-16.181 20.25-18.02 37.54 53.06-19.63z" fill="#738D56"></path>
      <path d="m179.51 146.421-2.3 22.09 24.321 20.02 12.479-32.33-34.5-9.78z" fill="#99C26C"></path>
      <path d="m183.2 198.071 34.42 5.27 20.97-14.81 5.74-17.35-42.8 17.35-18.33-19.43-29.34-30.32 29.34 59.29z" fill="#5A753C"></path>
      <path d="m235.19 129.931-5 6.02 14.14 35.23-26.71 32.16 7.799.7 28.061-30.89-18.29-43.22z" fill="#35785D"></path>
    </g>
    <g fill-rule="nonzero">
      <path d="m170.32 202.471 17.813-2.241-6.616-30.335-11.197 32.576zM91.25 172.401l-9.94-1.5-26.22-2.75 35.01 28.25 2.47 8.3 15.98 32.51 21.49-20.96-38.79-43.85z" fill="#738D56"></path>
      <path d="m77.84 209.711 11.57 20.3 12.12 5.44 8.73-12.43-17.69-30.82-14.73 17.51z" fill="#446024"></path>
      <path d="m123.539 170.888 44.56 46.556 1.33-68.504c-.75-.503-31.259-2.66-31.259-2.66a45.928 45.928 0 0 0-8.11 9.257 46.142 46.142 0 0 0-6.521 15.351z" fill="#53AF8A"></path>
      <path d="m122.3 155.53-3.21 13.57-30.08 13.351 45.68 31.73.28.391 30.09-10.301-42.76-48.741z" fill="#53AF8A"></path>
      <path d="m80.89 180.061 8.12 2.39 35.55-13.35-50.69-21.51-14.59 15.97 21.61 16.5z" fill="#71C8A6"></path>
      <path d="m152.17 134.861-.06-.12-.21.14.27-.02zM131.73 209.581l-72.45-46.02-4.19 4.59 74.95 48.1 27.61 35.8 15.05-47.77-40.97 5.3zM122.3 155.531l-16.62-11.36-30.56-6.97-1.25 10.39 50.69 21.51-2.26-13.57zM124.644 168.204l15.52-21.259-5.986-15.297-9.31 14.632-.224 21.924z" fill="#35785D"></path>
    </g>
    <path d="M10.83 389.24 109.81 400l153.57-12.22-145.68-10.67-106.87 12.13z" opacity=".1" fill="#2B2B2B" fill-rule="nonzero"></path>
    <path d="M138.13 361.17v13.67l16.88-5.21 9.59-7.29 3.14-12.31-29.61 11.14zM65.61 348.87l-5.07 26.04 14.61-.07 13.86-8.77 3.11-6.551-26.51-10.649z" fill="#35785D" fill-rule="nonzero"></path>
    <path d="m164.599 362.34-26.47 12.5v7.101l22.46 1.889 27.571-1.889-23.561-19.601z" fill="#53AF8A" fill-rule="nonzero"></path>
    <path d="M138.13 381.94h50.03v6.76h-50.03v-6.76z" fill="#35785D" fill-rule="nonzero"></path>
    <path d="m89.01 366.07 6.16 19.62-17.33 3.38-19.76-3.38 2.46-10.78 28.47-8.84z" fill="#53AF8A" fill-rule="nonzero"></path>
    <path d="M58.08 385.69h37.09v6.76H58.08v-6.76z" fill="#35785D" fill-rule="nonzero"></path>
    <g fill-rule="nonzero">
      <path d="m188.29 198.561-1.692 2.488-49.948 73.432-26.39-51.461-20.85 6.991-39.53 110.07 53.42 32.33.19.14 88.6-34.88-3.8-139.11z" fill="#738D56"></path>
      <path d="m169.65 204.281-17.48 30.53-8.911-7.989-13.219-10.571-19.781 6.77L104.2 364.97l79-166.898-12.88 4.399-.67 1.81z" fill="#99C26C"></path>
      <path d="m104.2 364.97-54.32-24.89-2.4 7.571 55.82 24.759.19.14 88.81-26.67-.21-8.21-87.89 27.3z" fill="#35785D"></path>
      <path d="m187.479 197.277-22.021.414s-1.583 28.935-1.958 29.31 24.625-2.5 24.625-2.5l-.646-27.224z" fill="#728C56"></path>
    </g>
    <g fill-rule="nonzero">
      <path d="m35.14 259.261-10.3 11.87-4.32 4.981 5.52 5.109 13.53-18.689-4.43-3.271z" fill="#C3977A"></path>
      <path d="m24.84 240.1-13.18 4.981-5.36 11.621 6.79 15.929 7.43 3.481.01-.011 10.42-10.699-6.11-25.302z" fill="#DFBCA4"></path>
      <path d="M35.65 258.681 16.1 235.452l-4.44 9.629 19.29 20.321 4.19-6.141.51-.58z" fill="#8A6651"></path>
      <path d="M20.52 276.111 6.3 256.701.85 275.582l8.97 12.979L20.53 276.1l-.01.011z" fill="#C3977A"></path>
    </g>
    <g fill-rule="nonzero">
      <path d="m55.09 168.151-40.4 53.71 48.72 7.42 19.18-46.83-27.5-14.3z" fill="#99C26C"></path>
      <path d="m14.69 221.861 19.39 38.899 10.95-3.789 36.28-72.559-66.62 37.449z" fill="#738D56"></path>
      <path d="m82.59 182.451-48.51 74.25 17.59-1.32 10.1-6.111 30.8-57.069-9.98-9.75z" fill="#5A753C"></path>
      <path d="m30.95 265.402 26.1-8.7 4.72-7.431-27.69 7.431-19.39-34.84-4.92 6.46 21.18 37.08z" fill="#35785D"></path>
    </g>
    <g fill-rule="nonzero">
      <path d="m181.49 131.252-16.63-97.1-27.64-21.29-17.54 14.83-36.42-2.39-6.34 5.77 13.18 25.73 22.64 93.3 33.31-9.19 35.44-9.66z" fill="#DFBCA4"></path>
      <path d="m137.22 18.402 27.64 15.75-16.48-21.99-13.56-3.97-2.85 4.67 5.25 5.54z" fill="#EBEBEB"></path>
      <path d="m107.611 20.792 15.04 13.36 14.57-15.75-2.4-10.209-27.87-8.181.66 20.78z" fill="#DDDDDC"></path>
      <path d="m80.411 20.792.29 3.26 2.25 1.849 39.649 8.301.051-.049-15.7-34.141-26.54 20.78z" fill="#C4C4C4"></path>
      <path d="m93.18 42.222-9.92-16.92-16.34 27.83 8.2 9.48 1.8 24.95-7.41-8.32-5.39 8.17-9.03 3.34 7.42 21.65 7.64-1.91 4.97 1-2.26 13.56 2.26 12.15 32.49 12.62 6.02.41-20.45-108.01z" fill="#C3977A"></path>
      <path d="m70.15 110.492 2.71 14.56 7.22-17.23-9.93 2.67zM61.11 93.422l12.76 8.54-3.36-11.58-9.4 3.04zM129.2 145.562l-21.59 4.26 16.41 6.38 5.18-10.64z" fill="#8A6651"></path>
      <path d="m50.57 44.452 13.55 42.96 4.33-1.55 9.23 5.34 2.66-33.84-10.63-6.23 13.55-25.83-2.85-4.51-29.84 23.66z" fill="#8F8F8F"></path>
    </g>
    <g opacity=".99" fill="#35785D" fill-rule="nonzero">
      <path d="m131.73 209.581-72.45-46.02-4.19 4.59 74.95 48.1 27.61 35.8 15.05-47.77-40.97 5.3z"></path>
    </g>
    <g fill-rule="nonzero">
      <path d="m141.17 100.702-24.37 21.93 14.93 86.95 27.36 25.189 2.09 3.711-.949 3.69-2.581 9.88 14.98 10.41-9.99-106.26-14.23-53.93-7.24-1.57z" fill="#C4C4C4"></path>
      <path d="m175.5 232.261 12.79-33.7-14.6-86.67-21.15-13.68-4.13 4.06 24.22 160.19 8.22-15.96-4.21-6.84-2.32-3.379 1.18-4.021z" fill="#EBEBEB"></path>
      <path d="m176.64 239.662-16.409 2.51-1.141-7.401 16.41-2.509 1.14 7.4z" fill="#446024"></path>
    </g>
    <g fill="#8A6651" fill-rule="nonzero">
      <path d="m159.47 114.872-22.71 3.88-1.01-4.61 22.7-3.87 1.02 4.6z"></path>
    </g>
    <g fill-rule="nonzero">
      <path d="m172.541 79.522.058.27-.028-.27h-.03z" fill="#8F8F8F"></path>
      <path d="m105.321 64.042 35.85 36.66-1.83-31.23-13.19-12.75 11.18-1.96 5.76 16.07 5.351 8.87 7.469-26.57-14.97-2.34-3.61 3.97-11.18 1.96-6.47-3.15-14.36 10.47z" fill="#C3977A"></path>
      <path d="m118.351 49.572 1.33 4-14.36 10.47-1.85-4.68 14.88-9.79zM139.351 46.012l1.59 4.78 14.97 2.34 1.01-3.24-17.57-3.88z" fill="#8F8F8F"></path>
      <path d="m137.331 54.762 8.14 11.58 7.07 31.87-11.37 2.49-6.16-31.47-8.86-12.51 11.18-1.96z" fill="#E8C9B6"></path>
      <path d="m152.541 98.212-11.37 2.49 7.71 4.69 3.66-7.18z" fill="#8F8F8F"></path>
    </g>
    <g fill="#2B2B2B" fill-rule="nonzero">
      <path d="M119.52 71.842a4.24 4.24 0 1 1 0 8.48 4.24 4.24 0 0 1 0-8.48zM152.54 64.352a4.24 4.24 0 1 1 0 8.48 4.24 4.24 0 0 1 0-8.48z"></path>
    </g>
  </g>
</svg>